<?xml version="1.0" encoding="UTF-8"?>
<svg width="421px" height="307px" viewBox="0 0 421 307" version="1.1" xmlns="http://www.w3.org/2000/svg" xmlns:xlink="http://www.w3.org/1999/xlink">
    <!-- Generator: Sketch 58 (84663) - https://sketch.com -->
    <title>Path</title>
    <desc>Created with Sketch.</desc>
    <g id="Page-1" stroke="none" stroke-width="1" fill="none" fill-rule="evenodd">
        <g id="about-blob" fill="#009EEC" fill-rule="nonzero">
            <path d="M262.5,59.5 C293,61.9 333.9,65.2 363.8,86.5 C393.7,107.8 412.6,147.1 418.8,192.8 C425,238.5 418.5,290.5 383,300.1 C347.6,309.7 283.3,276.9 239,271.4 C194.6,265.9 170.2,287.6 135,298.9 C99.7,310.2 53.7,311 34.3,288.6 C15,266.3 22.3,220.8 17.1,177.8 C11.9,134.7 -5.8,94.1 2.1,60.5 C10.1,26.9 43.7,0.3 79.7,0.399718972 C115.6,0.399718972 153.8,27.2 182.9,41.4 C212,55.5 232,57.1 262.5,59.5 Z" id="Path"></path>
        </g>
    </g>
</svg>